<svg xmlns="http://www.w3.org/2000/svg" viewBox="-22 -74 72 114"><defs></defs><g transform="matrix(0.8660,0.5000,0,-1,-2.60,1.50)"><path d="M14 56 C 14 82, 36 82, 36 56" fill="none" stroke="#14151a" stroke-width="5" stroke-linecap="round"/><path d="M14 56 C 14 82, 36 82, 36 56" fill="none" stroke="#4a33a8" stroke-width="2" stroke-linecap="round"/></g><polygon points="43.3,25.0 26.0,35.0 26.0,-21.0 43.3,-31.0" fill="#4a33a8" stroke="#14151a" stroke-width="3" stroke-linejoin="round" stroke-linecap="round"/><polygon points="-17.3,10.0 26.0,35.0 26.0,-21.0 -17.3,-46.0" fill="#7d63e6" stroke="#14151a" stroke-width="3" stroke-linejoin="round" stroke-linecap="round"/><polygon points="0.0,-56.0 43.3,-31.0 26.0,-21.0 -17.3,-46.0" fill="#2c1f6b" stroke="#14151a" stroke-width="3" stroke-linejoin="round" stroke-linecap="round"/><g transform="matrix(0.8660,0.5000,0,-1,-17.32,10.00)"><path d="M14 56 C 14 82, 36 82, 36 56" fill="none" stroke="#14151a" stroke-width="5" stroke-linecap="round"/><path d="M14 56 C 14 82, 36 82, 36 56" fill="none" stroke="#b9a8ff" stroke-width="2" stroke-linecap="round"/></g><g transform="matrix(0.8660,0.5000,0,-1,-17.32,10.00)"><rect x="12" y="14" width="26" height="22" rx="4" fill="#ffcb3d" stroke="#14151a" stroke-width="2.4" stroke-linejoin="round" stroke-linecap="round"/><path d="M18 30 V 20 H 26 V 26 M 32 20 V 30 H 24 V 24" fill="none" stroke="#14151a" stroke-width="2.4" stroke-linecap="round" stroke-linejoin="round"/></g></svg>
